<?xml version="1.0" encoding="UTF-8" standalone="no"?>
<svg
   xmlns:dc="http://purl.org/dc/elements/1.1/"
   xmlns:cc="http://creativecommons.org/ns#"
   xmlns:rdf="http://www.w3.org/1999/02/22-rdf-syntax-ns#"
   xmlns:svg="http://www.w3.org/2000/svg"
   xmlns="http://www.w3.org/2000/svg"
   xmlns:sodipodi="http://sodipodi.sourceforge.net/DTD/sodipodi-0.dtd"
   xmlns:inkscape="http://www.inkscape.org/namespaces/inkscape"
   inkscape:export-ydpi="96"
   inkscape:export-xdpi="96"
   inkscape:export-filename="blender_icons.png"
   style="display:inline;enable-background:new"
   inkscape:output_extension="org.inkscape.output.svg.inkscape"
   sodipodi:docname="icon-editor-uv.svg"
   version="1.0"
   inkscape:version="0.92.4 (5da689c313, 2019-01-14)"
   sodipodi:version="0.32"
   id="svg2"
   height="13.999896"
   width="13.999896">
  <metadata
     id="metadata34337">
    <rdf:RDF>
      <cc:Work
         rdf:about="">
        <dc:format>image/svg+xml</dc:format>
        <dc:type
           rdf:resource="http://purl.org/dc/dcmitype/StillImage" />
        <dc:title></dc:title>
      </cc:Work>
    </rdf:RDF>
  </metadata>
  <sodipodi:namedview
     inkscape:pagecheckerboard="true"
     inkscape:document-rotation="0"
     pagecolor="#808080"
     bordercolor="#666666"
     borderopacity="1"
     objecttolerance="10"
     gridtolerance="10"
     guidetolerance="10"
     inkscape:pageopacity="0"
     inkscape:pageshadow="2"
     inkscape:window-width="1366"
     inkscape:window-height="705"
     id="namedview34335"
     showgrid="false"
     inkscape:zoom="6.138702"
     inkscape:cx="2.4923281"
     inkscape:cy="40.457216"
     inkscape:window-x="1912"
     inkscape:window-y="315"
     inkscape:window-maximized="1"
     inkscape:current-layer="svg2"
     inkscape:showpageshadow="2"
     inkscape:deskcolor="#808080"
     fit-margin-top="0"
     fit-margin-left="0"
     fit-margin-right="0"
     fit-margin-bottom="0" />
  <defs
     id="defs4">
    <pattern
       y="0"
       x="0"
       height="6"
       width="6"
       patternUnits="userSpaceOnUse"
       id="EMFhbasepattern" />
  </defs>
  <path
     id="path843"
     d="m 5.9999551,9.0399327 h 1.999986 v -1.999985 h -1.999986 z m 0,-3.99997 h 1.999986 v -1.999985 h -1.999986 z"
     style="fill:#ffffff;fill-opacity:1;fill-rule:nonzero;stroke:none"
     inkscape:connector-curvature="0" />
  <path
     id="path845"
     d="M 1.9999852,0 C 1.4399893,0 0.9599929,0.2399982 0.6399953,0.5599959 0.2399982,0.9599929 0,1.4399897 0,1.9999857 v 9.9999253 c 0,0.559996 0.2399982,1.039992 0.5599958,1.439989 0.3999971,0.319998 0.8799935,0.559996 1.4399894,0.559996 h 1.5199887 c 0.2399982,0 0.4799965,-0.239998 0.4799965,-0.479996 V 3.5199737 c 0,-0.319997 -0.2399983,-0.479996 -0.4799965,-0.479996 H 1.9999852 c -0.4799965,0 -0.9599929,-0.479997 -0.9599929,-1.039992 0,-0.239999 0.079999,-0.479997 0.3199976,-0.719995 0.1599988,-0.159999 0.3999971,-0.239998 0.6399953,-0.239998 h 5.9999559 v 1.999985 h 1.999985 v -1.999985 h 1.9999849 v 1.999985 H 9.9999261 v 1.999985 h 1.9999849 v 1.999985 H 9.9999261 v 1.999985 H 11.999911 V 11.039918 H 9.9999261 V 9.0399327 H 7.9999411 V 11.039918 H 5.0399627 v 0.959993 H 13.5199 c 0.239998,0 0.479996,-0.239998 0.479996,-0.479996 V 0.4799965 C 13.999896,0.2399982 13.759898,0 13.5199,0 H 2.4799816 Z m 7.9999409,7.0399477 v -1.999985 h -1.999985 v 1.999985 z"
     style="fill:#ffffff;fill-opacity:1;fill-rule:nonzero;stroke:none"
     inkscape:connector-curvature="0" />
</svg>
