<?xml version="1.0" encoding="UTF-8" standalone="no"?>
<svg
   xmlns:dc="http://purl.org/dc/elements/1.1/"
   xmlns:cc="http://creativecommons.org/ns#"
   xmlns:rdf="http://www.w3.org/1999/02/22-rdf-syntax-ns#"
   xmlns:svg="http://www.w3.org/2000/svg"
   xmlns="http://www.w3.org/2000/svg"
   xmlns:sodipodi="http://sodipodi.sourceforge.net/DTD/sodipodi-0.dtd"
   xmlns:inkscape="http://www.inkscape.org/namespaces/inkscape"
   inkscape:export-ydpi="96"
   inkscape:export-xdpi="96"
   inkscape:export-filename="blender_icons.png"
   style="display:inline;enable-background:new"
   inkscape:output_extension="org.inkscape.output.svg.inkscape"
   sodipodi:docname="menu-item-icon-shading-material.svg"
   version="1.0"
   inkscape:version="0.92.4 (5da689c313, 2019-01-14)"
   sodipodi:version="0.32"
   id="svg2"
   height="14"
   width="14">
  <metadata
     id="metadata34337">
    <rdf:RDF>
      <cc:Work
         rdf:about="">
        <dc:format>image/svg+xml</dc:format>
        <dc:type
           rdf:resource="http://purl.org/dc/dcmitype/StillImage" />
        <dc:title></dc:title>
      </cc:Work>
    </rdf:RDF>
  </metadata>
  <sodipodi:namedview
     inkscape:pagecheckerboard="true"
     inkscape:document-rotation="0"
     pagecolor="#808080"
     bordercolor="#666666"
     borderopacity="1"
     objecttolerance="10"
     gridtolerance="10"
     guidetolerance="10"
     inkscape:pageopacity="0"
     inkscape:pageshadow="2"
     inkscape:window-width="1366"
     inkscape:window-height="705"
     id="namedview34335"
     showgrid="false"
     inkscape:zoom="1.6920065"
     inkscape:cx="-167.41136"
     inkscape:cy="164.32913"
     inkscape:window-x="1912"
     inkscape:window-y="315"
     inkscape:window-maximized="1"
     inkscape:current-layer="svg2"
     inkscape:showpageshadow="2"
     inkscape:deskcolor="#808080"
     fit-margin-top="0"
     fit-margin-left="0"
     fit-margin-right="0"
     fit-margin-bottom="0" />
  <defs
     id="defs4">
    <pattern
       y="0"
       x="0"
       height="6"
       width="6"
       patternUnits="userSpaceOnUse"
       id="EMFhbasepattern" />
  </defs>
  <g
     transform="translate(-321,-368)"
     id="g10731"
     style="display:inline;fill:#ffffff;enable-background:new"
     inkscape:export-filename="blender_icons.png"
     inkscape:export-xdpi="96"
     inkscape:export-ydpi="96"
     inkscape:label="F-4">
    <path
       style="color:#000000;font-style:normal;font-variant:normal;font-weight:normal;font-stretch:normal;font-size:medium;line-height:normal;font-family:sans-serif;font-variant-ligatures:normal;font-variant-position:normal;font-variant-caps:normal;font-variant-numeric:normal;font-variant-alternates:normal;font-feature-settings:normal;text-indent:0;text-align:start;text-decoration:none;text-decoration-line:none;text-decoration-style:solid;text-decoration-color:#000000;letter-spacing:normal;word-spacing:normal;text-transform:none;writing-mode:lr-tb;direction:ltr;text-orientation:mixed;dominant-baseline:auto;baseline-shift:baseline;text-anchor:start;white-space:normal;shape-padding:0;clip-rule:nonzero;display:inline;overflow:visible;visibility:visible;opacity:1;isolation:auto;mix-blend-mode:normal;color-interpolation:sRGB;color-interpolation-filters:linearRGB;solid-color:#000000;solid-opacity:1;vector-effect:none;fill:#ffffff;fill-opacity:1;fill-rule:evenodd;stroke:none;stroke-width:1;stroke-linecap:round;stroke-linejoin:round;stroke-miterlimit:4;stroke-dasharray:none;stroke-dashoffset:0;stroke-opacity:1;marker:none;color-rendering:auto;image-rendering:auto;shape-rendering:auto;text-rendering:auto;enable-background:accumulate"
       d="m 328,368 c -3.86007,0 -7,3.13993 -7,7 0,3.86007 3.13993,7 7,7 3.86007,0 7,-3.13993 7,-7 0,-3.86007 -3.13993,-7 -7,-7 z m 0,1 c 3.31963,0 6,2.68037 6,6 0,3.31963 -2.68037,6 -6,6 -3.31963,0 -6,-2.68037 -6,-6 0,-3.31963 2.68037,-6 6,-6 z"
       id="path10721"
       inkscape:connector-curvature="0" />
    <path
       style="color:#000000;font-style:normal;font-variant:normal;font-weight:normal;font-stretch:normal;font-size:medium;line-height:normal;font-family:sans-serif;font-variant-ligatures:normal;font-variant-position:normal;font-variant-caps:normal;font-variant-numeric:normal;font-variant-alternates:normal;font-feature-settings:normal;text-indent:0;text-align:start;text-decoration:none;text-decoration-line:none;text-decoration-style:solid;text-decoration-color:#000000;letter-spacing:normal;word-spacing:normal;text-transform:none;writing-mode:lr-tb;direction:ltr;text-orientation:mixed;dominant-baseline:auto;baseline-shift:baseline;text-anchor:start;white-space:normal;shape-padding:0;clip-rule:nonzero;display:inline;overflow:visible;visibility:visible;opacity:1;isolation:auto;mix-blend-mode:normal;color-interpolation:sRGB;color-interpolation-filters:linearRGB;solid-color:#000000;solid-opacity:1;vector-effect:none;fill:#ffffff;fill-opacity:1;fill-rule:nonzero;stroke:none;stroke-width:2;stroke-linecap:round;stroke-linejoin:round;stroke-miterlimit:4;stroke-dasharray:none;stroke-dashoffset:0;stroke-opacity:1;marker:none;color-rendering:auto;image-rendering:auto;shape-rendering:auto;text-rendering:auto;enable-background:accumulate"
       d="m 327.12891,369.9668 a 1.0001,1.0001 0 0 0 -0.16797,0.0234 c -2.00329,0.41569 -3.57155,1.99062 -3.97656,3.9961 a 1.0003053,1.0003053 0 1 0 1.96093,0.39648 c 0.24758,-1.22589 1.19732,-2.17949 2.42188,-2.43359 a 1.0001,1.0001 0 0 0 -0.23828,-1.98242 z"
       id="path10723"
       inkscape:connector-curvature="0" />
    <path
       style="color:#000000;font-style:normal;font-variant:normal;font-weight:normal;font-stretch:normal;font-size:medium;line-height:normal;font-family:sans-serif;font-variant-ligatures:normal;font-variant-position:normal;font-variant-caps:normal;font-variant-numeric:normal;font-variant-alternates:normal;font-feature-settings:normal;text-indent:0;text-align:start;text-decoration:none;text-decoration-line:none;text-decoration-style:solid;text-decoration-color:#000000;letter-spacing:normal;word-spacing:normal;text-transform:none;writing-mode:lr-tb;direction:ltr;text-orientation:mixed;dominant-baseline:auto;baseline-shift:baseline;text-anchor:start;white-space:normal;shape-padding:0;clip-rule:nonzero;display:inline;overflow:visible;visibility:visible;opacity:1;isolation:auto;mix-blend-mode:normal;color-interpolation:sRGB;color-interpolation-filters:linearRGB;solid-color:#000000;solid-opacity:1;vector-effect:none;fill:#ffffff;fill-opacity:1;fill-rule:nonzero;stroke:none;stroke-width:0.80000001;stroke-linecap:round;stroke-linejoin:round;stroke-miterlimit:4;stroke-dasharray:none;stroke-dashoffset:0;stroke-opacity:1;marker:none;color-rendering:auto;image-rendering:auto;shape-rendering:auto;text-rendering:auto;enable-background:accumulate"
       d="m 332.49609,373.0957 a 0.40004001,0.40004001 0 0 0 -0.27929,0.6875 l 2,2 a 0.40050528,0.40050528 0 1 0 0.5664,-0.5664 l -2,-2 a 0.40004001,0.40004001 0 0 0 -0.28711,-0.1211 z m -0.75,2.25 a 0.40004001,0.40004001 0 0 0 -0.27929,0.6875 l 2,2 a 0.40050528,0.40050528 0 1 0 0.5664,-0.5664 l -2,-2 a 0.40004001,0.40004001 0 0 0 -0.28711,-0.1211 z m -1.25,1.75 a 0.40004001,0.40004001 0 0 0 -0.27929,0.6875 l 2,2 a 0.40050528,0.40050528 0 1 0 0.5664,-0.5664 l -2,-2 a 0.40004001,0.40004001 0 0 0 -0.28711,-0.1211 z m -1.75,1.25 a 0.40004001,0.40004001 0 0 0 -0.27929,0.6875 l 2,2 a 0.40050528,0.40050528 0 1 0 0.5664,-0.5664 l -2,-2 a 0.40004001,0.40004001 0 0 0 -0.28711,-0.1211 z m -2.23632,0.75 a 0.40004001,0.40004001 0 0 0 -0.27344,0.70508 l 2,1.75 a 0.40004001,0.40004001 0 1 0 0.52734,-0.60156 l -2,-1.75 a 0.40004001,0.40004001 0 0 0 -0.2539,-0.10352 z"
       id="path10727"
       inkscape:connector-curvature="0" />
  </g>
</svg>
