<?xml version="1.0" encoding="UTF-8" standalone="no"?>
<svg
   xmlns:dc="http://purl.org/dc/elements/1.1/"
   xmlns:cc="http://creativecommons.org/ns#"
   xmlns:rdf="http://www.w3.org/1999/02/22-rdf-syntax-ns#"
   xmlns:svg="http://www.w3.org/2000/svg"
   xmlns="http://www.w3.org/2000/svg"
   xmlns:sodipodi="http://sodipodi.sourceforge.net/DTD/sodipodi-0.dtd"
   xmlns:inkscape="http://www.inkscape.org/namespaces/inkscape"
   inkscape:export-ydpi="96"
   inkscape:export-xdpi="96"
   inkscape:export-filename="blender_icons.png"
   style="display:inline;enable-background:new"
   inkscape:output_extension="org.inkscape.output.svg.inkscape"
   sodipodi:docname="menu-item-icon-small-camera.svg"
   version="1.0"
   inkscape:version="0.92.4 (5da689c313, 2019-01-14)"
   sodipodi:version="0.32"
   id="svg2"
   height="11"
   width="13.00028">
  <metadata
     id="metadata34337">
    <rdf:RDF>
      <cc:Work
         rdf:about="">
        <dc:format>image/svg+xml</dc:format>
        <dc:type
           rdf:resource="http://purl.org/dc/dcmitype/StillImage" />
        <dc:title></dc:title>
      </cc:Work>
    </rdf:RDF>
  </metadata>
  <sodipodi:namedview
     inkscape:pagecheckerboard="true"
     inkscape:document-rotation="0"
     pagecolor="#808080"
     bordercolor="#666666"
     borderopacity="1"
     objecttolerance="10"
     gridtolerance="10"
     guidetolerance="10"
     inkscape:pageopacity="0"
     inkscape:pageshadow="2"
     inkscape:window-width="1920"
     inkscape:window-height="1017"
     id="namedview34335"
     showgrid="false"
     inkscape:zoom="4.7857171"
     inkscape:cx="47.507231"
     inkscape:cy="-44.303548"
     inkscape:window-x="-8"
     inkscape:window-y="-8"
     inkscape:window-maximized="1"
     inkscape:current-layer="svg2"
     inkscape:showpageshadow="2"
     inkscape:deskcolor="#808080"
     fit-margin-top="0"
     fit-margin-left="0"
     fit-margin-right="0"
     fit-margin-bottom="0" />
  <defs
     id="defs4">
    <pattern
       y="0"
       x="0"
       height="6"
       width="6"
       patternUnits="userSpaceOnUse"
       id="EMFhbasepattern" />
  </defs>
  <g
     transform="translate(-510,-432)"
     id="g76979"
     style="display:inline;enable-background:new"
     inkscape:label="U-25">
    <path
       id="path16385"
       style="color:#000000;font-style:normal;font-variant:normal;font-weight:normal;font-stretch:normal;font-size:medium;line-height:normal;font-family:sans-serif;font-variant-ligatures:normal;font-variant-position:normal;font-variant-caps:normal;font-variant-numeric:normal;font-variant-alternates:normal;font-feature-settings:normal;text-indent:0;text-align:start;text-decoration:none;text-decoration-line:none;text-decoration-style:solid;text-decoration-color:#000000;letter-spacing:normal;word-spacing:normal;text-transform:none;writing-mode:lr-tb;direction:ltr;text-orientation:mixed;dominant-baseline:auto;baseline-shift:baseline;text-anchor:start;white-space:normal;shape-padding:0;clip-rule:nonzero;display:inline;overflow:visible;visibility:visible;opacity:1;isolation:auto;mix-blend-mode:normal;color-interpolation:sRGB;color-interpolation-filters:linearRGB;solid-color:#000000;solid-opacity:1;vector-effect:none;fill:#ffffff;fill-opacity:1;fill-rule:nonzero;stroke:none;stroke-width:1px;stroke-linecap:round;stroke-linejoin:round;stroke-miterlimit:4;stroke-dasharray:none;stroke-dashoffset:0;stroke-opacity:1;marker:none;color-rendering:auto;image-rendering:auto;shape-rendering:auto;text-rendering:auto;enable-background:new"
       d="m 515.5,432 c -0.1326,2e-5 -0.25976,0.0527 -0.35352,0.14647 L 513.29297,434 H 510.5 c -0.27613,3e-5 -0.49997,0.22387 -0.5,0.5 v 8 c 3e-5,0.27613 0.22387,0.49997 0.5,0.5 h 6.45312 0.004 c 0.0131,-8.2e-4 0.0261,-0.002 0.0391,-0.004 0.004,5e-5 0.008,5e-5 0.0117,0 0.0143,0.002 0.0286,0.003 0.043,0.004 h 0.006 5.44336 c 0.27613,-3e-5 0.49997,-0.22387 0.5,-0.5 v -8 c -3e-5,-0.27613 -0.22387,-0.49997 -0.5,-0.5 h -1.79297 l -1.85351,-1.85353 C 518.76,432.05268 518.6327,431.99995 518.5,432 Z m 1.49781,1.99804 c 2.21589,-3.2e-4 4.00185,1.7855 4.00195,4.00196 -9e-4,2.19736 -1.75841,3.97457 -3.95508,4 -0.0131,8.2e-4 -0.0261,0.002 -0.0391,0.004 -0.0149,-0.002 -0.0299,-0.003 -0.0449,-0.004 -10e-4,0 -0.003,0 -0.004,0 -2.19824,-0.0228 -3.95803,-1.80057 -3.95898,-4 9e-5,-2.21578 1.78479,-4.00131 4,-4.00196 z M 516.99805,435 C 515.34742,435 514,436.34922 514,438 c 0,1.65079 1.34742,3 2.99805,3 1.65063,0 3,-1.34921 3,-3 0,-1.65078 -1.34937,-3 -3,-3 z m 0,1 c 1.11009,0 2,0.88955 2,2 0,1.11045 -0.88991,2 -2,2 C 515.88796,440 515,439.11045 515,438 c 0,-1.11045 0.88796,-2 1.99805,-2 z"
       inkscape:connector-curvature="0" />
  </g>
</svg>
