<?xml version="1.0" encoding="UTF-8" standalone="no"?>
<svg
   xmlns:dc="http://purl.org/dc/elements/1.1/"
   xmlns:cc="http://creativecommons.org/ns#"
   xmlns:rdf="http://www.w3.org/1999/02/22-rdf-syntax-ns#"
   xmlns:svg="http://www.w3.org/2000/svg"
   xmlns="http://www.w3.org/2000/svg"
   xmlns:sodipodi="http://sodipodi.sourceforge.net/DTD/sodipodi-0.dtd"
   xmlns:inkscape="http://www.inkscape.org/namespaces/inkscape"
   inkscape:export-ydpi="96"
   inkscape:export-xdpi="96"
   inkscape:export-filename="blender_icons.png"
   style="display:inline;enable-background:new"
   inkscape:output_extension="org.inkscape.output.svg.inkscape"
   sodipodi:docname="menu-item-icon-editor-3dviewport.svg"
   version="1.0"
   inkscape:version="0.92.4 (5da689c313, 2019-01-14)"
   sodipodi:version="0.32"
   id="svg2"
   height="14.00732"
   width="13.999896">
  <metadata
     id="metadata34337">
    <rdf:RDF>
      <cc:Work
         rdf:about="">
        <dc:format>image/svg+xml</dc:format>
        <dc:type
           rdf:resource="http://purl.org/dc/dcmitype/StillImage" />
        <dc:title></dc:title>
      </cc:Work>
    </rdf:RDF>
  </metadata>
  <sodipodi:namedview
     inkscape:pagecheckerboard="true"
     inkscape:document-rotation="0"
     pagecolor="#808080"
     bordercolor="#666666"
     borderopacity="1"
     objecttolerance="10"
     gridtolerance="10"
     guidetolerance="10"
     inkscape:pageopacity="0"
     inkscape:pageshadow="2"
     inkscape:window-width="1366"
     inkscape:window-height="705"
     id="namedview34335"
     showgrid="false"
     inkscape:zoom="8.3408584"
     inkscape:cx="-2.7753952"
     inkscape:cy="9.3870452"
     inkscape:window-x="1912"
     inkscape:window-y="315"
     inkscape:window-maximized="1"
     inkscape:current-layer="svg2"
     inkscape:showpageshadow="2"
     inkscape:deskcolor="#808080"
     fit-margin-top="0"
     fit-margin-left="0"
     fit-margin-right="0"
     fit-margin-bottom="0" />
  <defs
     id="defs4">
    <pattern
       y="0"
       x="0"
       height="6"
       width="6"
       patternUnits="userSpaceOnUse"
       id="EMFhbasepattern" />
  </defs>
  <path
     id="path819"
     d="M 10.479922,0 C 8.5599367,0 7.039948,1.5999881 7.039948,3.5199739 c 0,1.9199858 1.5199887,3.4399745 3.439974,3.4399745 1.919986,0 3.519974,-1.5199887 3.519974,-3.4399745 C 13.999896,1.5999881 12.399908,0 10.479922,0 Z m 0,0.9599929 c 0.719995,0 0.719995,1.0399923 0,1.0399923 -0.7999937,0 -1.439989,0.6399952 -1.439989,1.5199887 0,0.6399953 -1.0399922,0.6399953 -1.0399922,0 0,-1.3599899 1.1199916,-2.559981 2.4799812,-2.559981 z"
     style="fill:#ffffff;fill-opacity:1;fill-rule:nonzero;stroke:none"
     inkscape:connector-curvature="0" />
  <path
     id="path821"
     d="m 4.4799669,3.9999704 c -0.2399982,0 -0.399997,0.1599988 -0.4799964,0.399997 L 3.6799728,5.9999556 h -2.159984 c -0.71999473,0 -0.71999473,1.0399923 0,1.0399923 H 3.4399746 L 2.7999794,9.9999259 H 0.47999648 c -0.63999531,0 -0.63999531,1.0399921 0,1.0399921 H 2.5599811 l -0.5599958,2.319983 c -0.1599988,0.719995 0.8799935,0.879994 0.9599929,0.239998 l 0.6399952,-2.559981 h 6.9599486 l 0.479996,2.559981 c 0.08,0.639996 1.039993,0.479997 0.959993,-0.159999 L 11.519915,11.039918 H 13.5199 c 0.639995,0 0.639995,-1.0399921 0,-1.0399921 H 11.359916 L 11.039918,8.3999378 c -0.08,-0.7199947 -1.1199915,-0.5599959 -0.959993,0.1599988 l 0.239999,1.4399893 H 3.7599722 l 0.7199947,-2.959978 h 1.9999852 c 0.7199947,0 0.7199947,-1.0399923 0,-1.0399923 h -1.759987 l 0.2399983,-1.35999 C 5.0399624,4.319968 4.7999645,3.9999704 4.4799669,3.9999704 Z"
     style="fill:#ffffff;fill-opacity:1;fill-rule:nonzero;stroke:none"
     inkscape:connector-curvature="0" />
</svg>
