<?xml version="1.0" encoding="UTF-8" standalone="no"?>
<svg
   xmlns:dc="http://purl.org/dc/elements/1.1/"
   xmlns:cc="http://creativecommons.org/ns#"
   xmlns:rdf="http://www.w3.org/1999/02/22-rdf-syntax-ns#"
   xmlns:svg="http://www.w3.org/2000/svg"
   xmlns="http://www.w3.org/2000/svg"
   xmlns:sodipodi="http://sodipodi.sourceforge.net/DTD/sodipodi-0.dtd"
   xmlns:inkscape="http://www.inkscape.org/namespaces/inkscape"
   inkscape:export-ydpi="96"
   inkscape:export-xdpi="96"
   inkscape:export-filename="blender_icons.png"
   style="display:inline;enable-background:new"
   inkscape:output_extension="org.inkscape.output.svg.inkscape"
   sodipodi:docname="menu-item-icon-light-data-point.svg"
   version="1.0"
   inkscape:version="0.92.4 (5da689c313, 2019-01-14)"
   sodipodi:version="0.32"
   id="svg2"
   height="15.001278"
   width="13.000563">
  <metadata
     id="metadata34337">
    <rdf:RDF>
      <cc:Work
         rdf:about="">
        <dc:format>image/svg+xml</dc:format>
        <dc:type
           rdf:resource="http://purl.org/dc/dcmitype/StillImage" />
        <dc:title></dc:title>
      </cc:Work>
    </rdf:RDF>
  </metadata>
  <sodipodi:namedview
     inkscape:pagecheckerboard="true"
     inkscape:document-rotation="0"
     pagecolor="#808080"
     bordercolor="#666666"
     borderopacity="1"
     objecttolerance="10"
     gridtolerance="10"
     guidetolerance="10"
     inkscape:pageopacity="0"
     inkscape:pageshadow="2"
     inkscape:window-width="1920"
     inkscape:window-height="1017"
     id="namedview34335"
     showgrid="false"
     inkscape:zoom="9.5714342"
     inkscape:cx="-8.4084242"
     inkscape:cy="-5.1063014"
     inkscape:window-x="-8"
     inkscape:window-y="-8"
     inkscape:window-maximized="1"
     inkscape:current-layer="svg2"
     inkscape:showpageshadow="2"
     inkscape:deskcolor="#808080"
     fit-margin-top="0"
     fit-margin-left="0"
     fit-margin-right="0"
     fit-margin-bottom="0" />
  <defs
     id="defs4">
    <pattern
       y="0"
       x="0"
       height="6"
       width="6"
       patternUnits="userSpaceOnUse"
       id="EMFhbasepattern" />
  </defs>
  <g
     transform="translate(-257.99905,-388.99997)"
     id="g19402"
     style="display:inline;fill:#0eb790;fill-opacity:1;enable-background:new"
     inkscape:label="S-13">
    <g
       style="display:inline;fill:#0eb790;fill-opacity:1;enable-background:new"
       transform="translate(-84,42)"
       id="g19210">
      <path
         inkscape:connector-curvature="0"
         d="m 348.48047,347 c -3.16361,0.009 -5.86504,2.31609 -6.39063,5.45117 -0.52558,3.13508 1.27477,6.20467 4.25977,7.25781 a 0.50005,0.50005 0 1 0 0.33203,-0.94336 c -2.52985,-0.89255 -4.05213,-3.48414 -3.60547,-6.14843 0.44666,-2.66429 2.72792,-4.6094 5.40821,-4.61719 2.68028,-0.008 4.97166,1.92234 5.43359,4.58398 0.46193,2.66165 -1.0456,5.26268 -3.57031,6.16993 a 0.50043111,0.50043111 0 1 0 0.33984,0.9414 c 2.9789,-1.07046 4.75841,-4.14926 4.21484,-7.28125 -0.54356,-3.13198 -3.25826,-5.42325 -6.42187,-5.41406 z m 0.0195,4.99999 c -0.8225,0 -1.5,0.6775 -1.5,1.5 0,0.64684 0.42097,1.19777 1,1.40625 v 0.59375 c -0.01,0.67616 1.00956,0.67616 1,0 v -0.59375 c 0.57902,-0.20848 1,-0.75941 1,-1.40625 0,-0.8225 -0.67751,-1.5 -1.5,-1.5 z m 0,1 c 0.28206,0 0.5,0.21794 0.5,0.5 0,0.28206 -0.21794,0.5 -0.5,0.5 -0.28207,0 -0.5,-0.21794 -0.5,-0.5 0,-0.28206 0.21793,-0.5 0.5,-0.5 z m -0.002,3.98438 c -0.27614,0.004 -0.49651,0.23167 -0.49219,0.50781 v 1 c -0.01,0.67616 1.00957,0.67616 1,0 v -1 c 0.004,-0.28226 -0.22555,-0.51223 -0.50781,-0.50781 z m 0,3 c -0.27614,0.004 -0.49651,0.23167 -0.49219,0.50781 v 1.00195 c -0.01,0.67616 1.00957,0.67616 1,0 v -1.00195 c 0.004,-0.28226 -0.22555,-0.51223 -0.50781,-0.50781 z"
         style="color:#000000;font-style:normal;font-variant:normal;font-weight:normal;font-stretch:normal;font-size:medium;line-height:normal;font-family:sans-serif;font-variant-ligatures:normal;font-variant-position:normal;font-variant-caps:normal;font-variant-numeric:normal;font-variant-alternates:normal;font-feature-settings:normal;text-indent:0;text-align:start;text-decoration:none;text-decoration-line:none;text-decoration-style:solid;text-decoration-color:#000000;letter-spacing:normal;word-spacing:normal;text-transform:none;writing-mode:lr-tb;direction:ltr;text-orientation:mixed;dominant-baseline:auto;baseline-shift:baseline;text-anchor:start;white-space:normal;shape-padding:0;clip-rule:nonzero;display:inline;overflow:visible;visibility:visible;opacity:1;isolation:auto;mix-blend-mode:normal;color-interpolation:sRGB;color-interpolation-filters:linearRGB;solid-color:#000000;solid-opacity:1;vector-effect:none;fill:#0eb790;fill-opacity:1;fill-rule:nonzero;stroke:none;stroke-width:1;stroke-linecap:round;stroke-linejoin:round;stroke-miterlimit:4;stroke-dasharray:none;stroke-dashoffset:0;stroke-opacity:1;color-rendering:auto;image-rendering:auto;shape-rendering:auto;text-rendering:auto;enable-background:new"
         id="circle19208" />
    </g>
  </g>
</svg>
