<?xml version="1.0" encoding="UTF-8" standalone="no"?>
<svg
   xmlns:dc="http://purl.org/dc/elements/1.1/"
   xmlns:cc="http://creativecommons.org/ns#"
   xmlns:rdf="http://www.w3.org/1999/02/22-rdf-syntax-ns#"
   xmlns:svg="http://www.w3.org/2000/svg"
   xmlns="http://www.w3.org/2000/svg"
   xmlns:sodipodi="http://sodipodi.sourceforge.net/DTD/sodipodi-0.dtd"
   xmlns:inkscape="http://www.inkscape.org/namespaces/inkscape"
   viewBox="0 0 16 16"
   version="1.1"
   id="svg4"
   sodipodi:docname="question-mark-circle-outline-icon.svg"
   width="16"
   height="16"
   style="clip-rule:evenodd;fill-rule:evenodd;image-rendering:optimizeQuality;shape-rendering:geometricPrecision;text-rendering:geometricPrecision"
   inkscape:version="0.92.4 (5da689c313, 2019-01-14)">
  <metadata
     id="metadata10">
    <rdf:RDF>
      <cc:Work
         rdf:about="">
        <dc:format>image/svg+xml</dc:format>
        <dc:type
           rdf:resource="http://purl.org/dc/dcmitype/StillImage" />
        <dc:title></dc:title>
      </cc:Work>
    </rdf:RDF>
  </metadata>
  <defs
     id="defs8" />
  <sodipodi:namedview
     pagecolor="#ffffff"
     bordercolor="#666666"
     borderopacity="1"
     objecttolerance="10"
     gridtolerance="10"
     guidetolerance="10"
     inkscape:pageopacity="0"
     inkscape:pageshadow="2"
     inkscape:window-width="1366"
     inkscape:window-height="705"
     id="namedview6"
     showgrid="false"
     fit-margin-top="0"
     fit-margin-left="0"
     fit-margin-right="0"
     fit-margin-bottom="0"
     inkscape:zoom="2.8315345"
     inkscape:cx="62.902899"
     inkscape:cy="12.062015"
     inkscape:window-x="1912"
     inkscape:window-y="315"
     inkscape:window-maximized="1"
     inkscape:current-layer="svg4" />
  <path
     d="m 8,0 c 2.209063,0 4.209375,0.895625 5.656875,2.343125 C 15.104375,3.79094 16,5.79094 16,8 16,10.20906 15.104375,12.209375 13.656875,13.656875 12.209375,15.104375 10.209063,16 8,16 5.7909375,16 3.7909375,15.104375 2.343125,13.656875 0.895625,12.209375 0,10.20906 0,8 0,5.79094 0.895625,3.79094 2.343125,2.343125 3.7909375,0.895625 5.7909375,0 8,0 Z M 7.3284375,9.42219 V 9.35875 C 7.3334375,8.938125 7.3746875,8.605 7.455625,8.35719 7.535,8.10969 7.6490625,7.908125 7.7984375,7.755625 7.9475,7.601875 8.126875,7.462185 8.3365625,7.335 8.47125,7.24937 8.5934375,7.154375 8.7015625,7.048125 8.809375,6.943125 8.895,6.82094 8.95875,6.682815 c 0.063125,-0.136565 0.095,-0.288755 0.095,-0.45688 0,-0.2 -0.0475,-0.373125 -0.1428125,-0.520625 C 8.8171875,5.559065 8.6903125,5.44656 8.5346875,5.365625 8.3775,5.286245 8.203125,5.246565 8.0109375,5.246565 c -0.1728125,0 -0.3378125,0.0347 -0.4965625,0.10781 -0.1571875,0.07156 -0.2890625,0.18406 -0.3921875,0.33656 -0.103125,0.15219 -0.1634375,0.3475 -0.179375,0.58563 H 5.914375 C 5.930315,5.871875 6.0334375,5.529065 6.2221875,5.248125 6.4128125,4.967185 6.66375,4.754375 6.9746875,4.61 7.2875,4.465625 7.6334375,4.394375 8.0109375,4.394375 c 0.4159375,0 0.7778125,0.07594 1.08875,0.23156 0.31125,0.154065 0.5540625,0.36969 0.7271875,0.64594 0.17125,0.27625 0.25875,0.596875 0.25875,0.965 0,0.2525 -0.03969,0.479375 -0.1190625,0.680935 C 9.8871875,7.119375 9.7759375,7.30031 9.63,7.4575 9.48375,7.61625 9.3109375,7.755625 9.1078125,7.87656 8.915625,7.997185 8.7603125,8.120935 8.6428125,8.249375 8.52375,8.37781 8.4378125,8.530315 8.3840625,8.705 8.33,8.880935 8.3,9.098435 8.2953125,9.35875 v 0.06344 z m 0.51125,2.05687 C 7.6540625,11.47806 7.4953125,11.4125 7.361875,11.280625 7.22875,11.149065 7.1634375,10.98875 7.1634375,10.80156 c 0,-0.18406 0.065313,-0.34281 0.1984375,-0.474685 0.1334375,-0.131565 0.2921875,-0.19844 0.4778125,-0.19844 0.1825,0 0.34125,0.06687 0.474375,0.19844 0.135,0.131875 0.2015625,0.290625 0.2015625,0.474685 0,0.12375 -0.03156,0.23813 -0.093438,0.33969 -0.061875,0.103125 -0.1428125,0.185625 -0.244375,0.24594 -0.1015625,0.06031 -0.214375,0.09062 -0.3381245,0.09187 z M 13.053438,2.94656 C 11.760313,1.65375 9.9734375,0.85375 8,0.85375 c -1.9734375,0 -3.76,0.8 -5.0534375,2.09281 C 1.65375,4.24 0.85375,6.026565 0.85375,8 c 0,1.973435 0.8,3.76031 2.0928125,5.053435 C 4.24,14.34625 6.0265625,15.14625 8,15.14625 c 1.9734375,0 3.760313,-0.8 5.053438,-2.092815 C 14.34625,11.76031 15.14625,9.973435 15.14625,8 c 0,-1.973435 -0.8,-3.76 -2.092812,-5.05344 z"
     id="path2"
     inkscape:connector-curvature="0"
     style="fill:#546682;fill-opacity:1;fill-rule:nonzero;stroke-width:0.03125" />
</svg>
