<?xml version="1.0" encoding="UTF-8" standalone="no"?>
<svg
   xmlns:dc="http://purl.org/dc/elements/1.1/"
   xmlns:cc="http://creativecommons.org/ns#"
   xmlns:rdf="http://www.w3.org/1999/02/22-rdf-syntax-ns#"
   xmlns:svg="http://www.w3.org/2000/svg"
   xmlns="http://www.w3.org/2000/svg"
   xmlns:sodipodi="http://sodipodi.sourceforge.net/DTD/sodipodi-0.dtd"
   xmlns:inkscape="http://www.inkscape.org/namespaces/inkscape"
   inkscape:export-ydpi="96"
   inkscape:export-xdpi="96"
   inkscape:export-filename="blender_icons.png"
   style="display:inline;enable-background:new"
   inkscape:output_extension="org.inkscape.output.svg.inkscape"
   sodipodi:docname="icon-cronometer.svg"
   version="1.0"
   inkscape:version="0.92.4 (5da689c313, 2019-01-14)"
   sodipodi:version="0.32"
   id="svg2"
   height="13.996163"
   width="13.006064">
  <metadata
     id="metadata34337">
    <rdf:RDF>
      <cc:Work
         rdf:about="">
        <dc:format>image/svg+xml</dc:format>
        <dc:type
           rdf:resource="http://purl.org/dc/dcmitype/StillImage" />
        <dc:title></dc:title>
      </cc:Work>
    </rdf:RDF>
  </metadata>
  <sodipodi:namedview
     inkscape:pagecheckerboard="true"
     inkscape:document-rotation="0"
     pagecolor="#808080"
     bordercolor="#666666"
     borderopacity="1"
     objecttolerance="10"
     gridtolerance="10"
     guidetolerance="10"
     inkscape:pageopacity="0"
     inkscape:pageshadow="2"
     inkscape:window-width="1363"
     inkscape:window-height="702"
     id="namedview34335"
     showgrid="false"
     inkscape:zoom="4.7857171"
     inkscape:cx="-41.526775"
     inkscape:cy="43.05235"
     inkscape:window-x="1912"
     inkscape:window-y="315"
     inkscape:window-maximized="0"
     inkscape:current-layer="svg2"
     inkscape:showpageshadow="2"
     inkscape:deskcolor="#808080"
     fit-margin-top="0"
     fit-margin-left="0"
     fit-margin-right="0"
     fit-margin-bottom="0" />
  <defs
     id="defs4">
    <pattern
       y="0"
       x="0"
       height="6"
       width="6"
       patternUnits="userSpaceOnUse"
       id="EMFhbasepattern" />
  </defs>
  <g
     transform="translate(-196,-221.00384)"
     id="g6085"
     style="display:inline;fill:#ffffff;enable-background:new"
     inkscape:label="K-10">
    <path
       style="color:#000000;font-style:normal;font-variant:normal;font-weight:normal;font-stretch:normal;font-size:medium;line-height:normal;font-family:sans-serif;font-variant-ligatures:normal;font-variant-position:normal;font-variant-caps:normal;font-variant-numeric:normal;font-variant-alternates:normal;font-feature-settings:normal;text-indent:0;text-align:start;text-decoration:none;text-decoration-line:none;text-decoration-style:solid;text-decoration-color:#000000;letter-spacing:normal;word-spacing:normal;text-transform:none;writing-mode:lr-tb;direction:ltr;text-orientation:mixed;dominant-baseline:auto;baseline-shift:baseline;text-anchor:start;white-space:normal;shape-padding:0;clip-rule:nonzero;display:inline;overflow:visible;visibility:visible;opacity:1;isolation:auto;mix-blend-mode:normal;color-interpolation:sRGB;color-interpolation-filters:linearRGB;solid-color:#000000;solid-opacity:1;vector-effect:none;fill:#ffffff;fill-opacity:1;fill-rule:evenodd;stroke:none;stroke-width:1;stroke-linecap:round;stroke-linejoin:round;stroke-miterlimit:4;stroke-dasharray:none;stroke-dashoffset:0;stroke-opacity:1;marker:none;color-rendering:auto;image-rendering:auto;shape-rendering:auto;text-rendering:auto;enable-background:accumulate"
       d="m 199.5,221.00391 c -0.67616,-0.01 -0.67616,1.00956 0,1 h 1.5 v 1.08789 c -2.83241,0.47934 -5.00001,2.94243 -5,5.9082 0,3.30787 2.69334,6 6.00195,6 3.30861,0 6.00196,-2.69214 6.00196,-6 0,-1.22417 -0.37149,-2.36223 -1.00391,-3.3125 a 0.50005,0.50005 0 0 0 0.10352,-0.0801 l 1.75,-1.75 a 0.50005,0.50005 0 0 0 -0.36329,-0.85937 0.50005,0.50005 0 0 0 -0.34375,0.15234 l -1.75,1.75 a 0.50005,0.50005 0 0 0 -0.0117,0.0137 C 205.28833,223.73959 203.73131,223 202.00195,223 c -6.5e-4,0 -0.001,0 -0.002,0 v -0.99609 h 1.5 c 0.67616,0.01 0.67616,-1.00956 0,-1 z M 202.00195,224 c 2.76833,0 5.00196,2.23273 5.00196,5 0,2.76726 -2.23363,5 -5.00196,5 C 199.23362,234 197,231.76727 197,229 c -1e-5,-2.76727 2.23362,-5 5.00195,-5 z"
       id="path17270"
       inkscape:connector-curvature="0" />
    <path
       style="color:#000000;font-style:normal;font-variant:normal;font-weight:normal;font-stretch:normal;font-size:medium;line-height:normal;font-family:sans-serif;font-variant-ligatures:normal;font-variant-position:normal;font-variant-caps:normal;font-variant-numeric:normal;font-variant-alternates:normal;font-feature-settings:normal;text-indent:0;text-align:start;text-decoration:none;text-decoration-line:none;text-decoration-style:solid;text-decoration-color:#000000;letter-spacing:normal;word-spacing:normal;text-transform:none;writing-mode:lr-tb;direction:ltr;text-orientation:mixed;dominant-baseline:auto;baseline-shift:baseline;text-anchor:start;white-space:normal;shape-padding:0;clip-rule:nonzero;display:inline;overflow:visible;visibility:visible;opacity:1;isolation:auto;mix-blend-mode:normal;color-interpolation:sRGB;color-interpolation-filters:linearRGB;solid-color:#000000;solid-opacity:1;vector-effect:none;fill:#ffffff;fill-opacity:1;fill-rule:nonzero;stroke:none;stroke-width:1;stroke-linecap:round;stroke-linejoin:round;stroke-miterlimit:4;stroke-dasharray:none;stroke-dashoffset:0;stroke-opacity:1;color-rendering:auto;image-rendering:auto;shape-rendering:auto;text-rendering:auto;enable-background:new"
       d="M 201.49219,224.99609 A 0.50005,0.50005 0 0 0 201,225.50391 v 3.91992 a 0.50005,0.50005 0 0 0 0.11328,0.40429 0.50005,0.50005 0 0 0 0.0156,0.0195 0.50005,0.50005 0 0 0 0.0176,0.0176 0.50005,0.50005 0 0 0 0.004,0.002 0.50005,0.50005 0 0 0 0.0332,0.0312 0.50005,0.50005 0 0 0 0.004,0.002 0.50005,0.50005 0 0 0 0.39453,0.10352 H 204.5 a 0.50005,0.50005 0 1 0 0,-1 H 202 v -3.5 a 0.50005,0.50005 0 0 0 -0.50781,-0.50782 z"
       id="path17274"
       inkscape:connector-curvature="0" />
  </g>
</svg>
