<?xml version="1.0" encoding="UTF-8" standalone="no"?>
<svg
   xmlns:dc="http://purl.org/dc/elements/1.1/"
   xmlns:cc="http://creativecommons.org/ns#"
   xmlns:rdf="http://www.w3.org/1999/02/22-rdf-syntax-ns#"
   xmlns:svg="http://www.w3.org/2000/svg"
   xmlns="http://www.w3.org/2000/svg"
   xmlns:sodipodi="http://sodipodi.sourceforge.net/DTD/sodipodi-0.dtd"
   xmlns:inkscape="http://www.inkscape.org/namespaces/inkscape"
   inkscape:export-ydpi="96"
   inkscape:export-xdpi="96"
   inkscape:export-filename="blender_icons.png"
   style="display:inline;enable-background:new"
   inkscape:output_extension="org.inkscape.output.svg.inkscape"
   sodipodi:docname="icon-snapping-enabled.svg"
   version="1.0"
   inkscape:version="0.92.4 (5da689c313, 2019-01-14)"
   sodipodi:version="0.32"
   id="svg2"
   height="14.040814"
   width="14.007313">
  <metadata
     id="metadata34337">
    <rdf:RDF>
      <cc:Work
         rdf:about="">
        <dc:format>image/svg+xml</dc:format>
        <dc:type
           rdf:resource="http://purl.org/dc/dcmitype/StillImage" />
        <dc:title></dc:title>
      </cc:Work>
    </rdf:RDF>
  </metadata>
  <sodipodi:namedview
     inkscape:pagecheckerboard="true"
     inkscape:document-rotation="0"
     pagecolor="#808080"
     bordercolor="#666666"
     borderopacity="1"
     objecttolerance="10"
     gridtolerance="10"
     guidetolerance="10"
     inkscape:pageopacity="0"
     inkscape:pageshadow="2"
     inkscape:window-width="1366"
     inkscape:window-height="705"
     id="namedview34335"
     showgrid="false"
     inkscape:zoom="13.536052"
     inkscape:cx="-10.707771"
     inkscape:cy="12.473016"
     inkscape:window-x="-8"
     inkscape:window-y="-8"
     inkscape:window-maximized="1"
     inkscape:current-layer="svg2"
     inkscape:showpageshadow="2"
     inkscape:deskcolor="#808080"
     fit-margin-top="0"
     fit-margin-left="0"
     fit-margin-right="0"
     fit-margin-bottom="0" />
  <defs
     id="defs4">
    <pattern
       y="0"
       x="0"
       height="6"
       width="6"
       patternUnits="userSpaceOnUse"
       id="EMFhbasepattern" />
  </defs>
  <g
     transform="translate(-110.99995,-157.96631)"
     id="g4301"
     style="display:inline;enable-background:new"
     inkscape:label="H-6">
    <path
       style="color:#000000;font-style:normal;font-variant:normal;font-weight:normal;font-stretch:normal;font-size:medium;line-height:normal;font-family:sans-serif;font-variant-ligatures:normal;font-variant-position:normal;font-variant-caps:normal;font-variant-numeric:normal;font-variant-alternates:normal;font-feature-settings:normal;text-indent:0;text-align:start;text-decoration:none;text-decoration-line:none;text-decoration-style:solid;text-decoration-color:#000000;letter-spacing:normal;word-spacing:normal;text-transform:none;writing-mode:lr-tb;direction:ltr;text-orientation:mixed;dominant-baseline:auto;baseline-shift:baseline;text-anchor:start;white-space:normal;shape-padding:0;clip-rule:nonzero;display:inline;overflow:visible;visibility:visible;opacity:0.6;isolation:auto;mix-blend-mode:normal;color-interpolation:sRGB;color-interpolation-filters:linearRGB;solid-color:#000000;solid-opacity:1;vector-effect:none;fill:#ffffff;fill-opacity:1;fill-rule:nonzero;stroke:none;stroke-width:1px;stroke-linecap:round;stroke-linejoin:round;stroke-miterlimit:4;stroke-dasharray:none;stroke-dashoffset:0;stroke-opacity:1;color-rendering:auto;image-rendering:auto;shape-rendering:auto;text-rendering:auto;enable-background:new"
       d="M 114.49219,166.99219 A 0.50005,0.50005 0 0 0 114,167.5 v 1.5 h -2.5 a 0.50005,0.50005 0 0 0 -0.5,0.5 v 2 a 0.50005,0.50005 0 1 0 1,0 V 170 h 2.5 a 0.50005,0.50005 0 0 0 0.5,-0.5 v -2 a 0.50005,0.50005 0 0 0 -0.50781,-0.50781 z"
       id="path4913-5-0"
       inkscape:connector-curvature="0" />
    <path
       style="color:#000000;font-style:normal;font-variant:normal;font-weight:normal;font-stretch:normal;font-size:medium;line-height:normal;font-family:sans-serif;font-variant-ligatures:normal;font-variant-position:normal;font-variant-caps:normal;font-variant-numeric:normal;font-variant-alternates:normal;font-feature-settings:normal;text-indent:0;text-align:start;text-decoration:none;text-decoration-line:none;text-decoration-style:solid;text-decoration-color:#000000;letter-spacing:normal;word-spacing:normal;text-transform:none;writing-mode:lr-tb;direction:ltr;text-orientation:mixed;dominant-baseline:auto;baseline-shift:baseline;text-anchor:start;white-space:normal;shape-padding:0;clip-rule:nonzero;display:inline;overflow:visible;visibility:visible;opacity:1;isolation:auto;mix-blend-mode:normal;color-interpolation:sRGB;color-interpolation-filters:linearRGB;solid-color:#000000;solid-opacity:1;vector-effect:none;fill:#ffffff;fill-opacity:1;fill-rule:nonzero;stroke:none;stroke-width:1;stroke-linecap:round;stroke-linejoin:round;stroke-miterlimit:4;stroke-dasharray:none;stroke-dashoffset:0;stroke-opacity:1;marker:none;paint-order:fill markers stroke;color-rendering:auto;image-rendering:auto;shape-rendering:auto;text-rendering:auto;enable-background:new"
       d="m 118.89062,157.9668 c -1.59478,-0.0195 -3.16997,0.53887 -4.2539,1.6914 l -0.74024,0.73828 c -0.19519,0.19527 -0.19519,0.51177 0,0.70704 l 2,2 c 0.19527,0.19519 0.51177,0.19519 0.70704,0 l 0.5,-0.5 c 0.5849,-0.58491 1.58165,-0.89809 2.3457,-0.69336 0.80156,0.21477 1.42585,0.83907 1.64062,1.64062 0.20473,0.76404 -0.10844,1.76078 -0.69336,2.3457 l -0.5,0.5 c -0.19519,0.19527 -0.19519,0.51177 0,0.70704 l 2,2 c 0.19527,0.19519 0.51177,0.19519 0.70704,0 l 0.75,-0.75 c 2.22378,-2.22379 2.21818,-6.29752 -0.0977,-8.61329 -1.15793,-1.15796 -2.77045,-1.75392 -4.36524,-1.77343 z m -6.14848,3.7832 c -0.12989,0.002 -0.25387,0.0546 -0.34571,0.14648 l -1.25,1.25 c -0.19519,0.19527 -0.19519,0.51177 0,0.70704 l 2,2 c 0.19527,0.19519 0.51177,0.19519 0.70704,0 l 1.25,-1.25 c 0.19519,-0.19527 0.19519,-0.51177 0,-0.70704 l -2,-2 c -0.0957,-0.0957 -0.226,-0.14854 -0.36128,-0.14648 z m 6.00019,6 c -0.12989,0.002 -0.25387,0.0546 -0.34571,0.14648 l -1.25,1.25 c -0.19519,0.19527 -0.19519,0.51177 0,0.70704 l 2,2 c 0.19527,0.19519 0.51177,0.19519 0.70704,0 l 1.25,-1.25 c 0.19519,-0.19527 0.19519,-0.51177 0,-0.70704 l -2,-2 c -0.0957,-0.0957 -0.22612,-0.14859 -0.36147,-0.14648 z"
       id="path21201-1"
       inkscape:connector-curvature="0"
       sodipodi:nodetypes="cccccccccscccccccccccccccccccccccccccccc" />
  </g>
</svg>
