<?xml version="1.0" encoding="UTF-8" standalone="no"?>
<svg
   xmlns:dc="http://purl.org/dc/elements/1.1/"
   xmlns:cc="http://creativecommons.org/ns#"
   xmlns:rdf="http://www.w3.org/1999/02/22-rdf-syntax-ns#"
   xmlns:svg="http://www.w3.org/2000/svg"
   xmlns="http://www.w3.org/2000/svg"
   xmlns:sodipodi="http://sodipodi.sourceforge.net/DTD/sodipodi-0.dtd"
   xmlns:inkscape="http://www.inkscape.org/namespaces/inkscape"
   inkscape:export-ydpi="96"
   inkscape:export-xdpi="96"
   inkscape:export-filename="blender_icons.png"
   style="display:inline;enable-background:new"
   inkscape:output_extension="org.inkscape.output.svg.inkscape"
   sodipodi:docname="icon-snapping-disabled.svg"
   version="1.0"
   inkscape:version="0.92.4 (5da689c313, 2019-01-14)"
   sodipodi:version="0.32"
   id="svg2"
   height="14.007913"
   width="13.988093">
  <metadata
     id="metadata34337">
    <rdf:RDF>
      <cc:Work
         rdf:about="">
        <dc:format>image/svg+xml</dc:format>
        <dc:type
           rdf:resource="http://purl.org/dc/dcmitype/StillImage" />
        <dc:title></dc:title>
      </cc:Work>
    </rdf:RDF>
  </metadata>
  <sodipodi:namedview
     inkscape:pagecheckerboard="true"
     inkscape:document-rotation="0"
     pagecolor="#808080"
     bordercolor="#666666"
     borderopacity="1"
     objecttolerance="10"
     gridtolerance="10"
     guidetolerance="10"
     inkscape:pageopacity="0"
     inkscape:pageshadow="2"
     inkscape:window-width="1366"
     inkscape:window-height="705"
     id="namedview34335"
     showgrid="false"
     inkscape:zoom="0.73723469"
     inkscape:cx="-422.95644"
     inkscape:cy="1.6676676"
     inkscape:window-x="-8"
     inkscape:window-y="-8"
     inkscape:window-maximized="1"
     inkscape:current-layer="svg2"
     inkscape:showpageshadow="2"
     inkscape:deskcolor="#808080"
     fit-margin-top="0"
     fit-margin-left="0"
     fit-margin-right="0"
     fit-margin-bottom="0" />
  <defs
     id="defs4">
    <pattern
       y="0"
       x="0"
       height="6"
       width="6"
       patternUnits="userSpaceOnUse"
       id="EMFhbasepattern" />
  </defs>
  <g
     transform="translate(-90.000091,-157.992)"
     id="g4307"
     style="display:inline;enable-background:new"
     inkscape:label="H-5">
    <path
       inkscape:connector-curvature="0"
       id="path20072-2"
       d="m 97.917969,157.99219 c -1.58517,-0.0121 -3.159728,0.54254 -4.271485,1.65429 l -3.5,3.5 a 0.50005,0.50005 0 0 0 0,0.70704 l 2,2 a 0.50005,0.50005 0 0 0 0.707032,0 l 3.25,-3.25 c 0.584908,-0.58491 1.581654,-0.89809 2.345703,-0.69336 0.801559,0.21477 1.425851,0.83907 1.640621,1.64062 0.20473,0.76404 -0.108435,1.76078 -0.693356,2.3457 l -3.25,3.25 a 0.50005,0.50005 0 0 0 0,0.70704 l 2,2 a 0.50005,0.50005 0 0 0 0.707032,0 l 3.474604,-3.47657 a 0.50005,0.50005 0 0 0 0.0254,-0.0234 0.50005,0.50005 0 0 0 0.12109,-0.18946 c 2.06467,-2.25524 2.04105,-6.1641 -0.21875,-8.42383 -1.15788,-1.15791 -2.752722,-1.73596 -4.337891,-1.74804 z m -0.0078,1.0332 c 1.340871,0.01 2.694311,0.47748 3.638671,1.42188 1.8888,1.88873 1.87387,5.423 0.0977,7.19921 L 98.5,170.79297 97.207031,169.5 l 2.896489,-2.89648 c 0.84012,-0.84012 1.27,-2.1299 0.95312,-3.3125 -0.30683,-1.14511 -1.202555,-2.04084 -2.347656,-2.34766 -1.182591,-0.31687 -2.472368,0.11299 -3.3125,0.95312 L 92.5,164.79297 91.207031,163.5 l 3.146485,-3.14648 c 0.888243,-0.88825 2.21577,-1.33772 3.55664,-1.32813 z"
       style="color:#000000;font-style:normal;font-variant:normal;font-weight:normal;font-stretch:normal;font-size:medium;line-height:normal;font-family:sans-serif;font-variant-ligatures:normal;font-variant-position:normal;font-variant-caps:normal;font-variant-numeric:normal;font-variant-alternates:normal;font-feature-settings:normal;text-indent:0;text-align:start;text-decoration:none;text-decoration-line:none;text-decoration-style:solid;text-decoration-color:#000000;letter-spacing:normal;word-spacing:normal;text-transform:none;writing-mode:lr-tb;direction:ltr;text-orientation:mixed;dominant-baseline:auto;baseline-shift:baseline;text-anchor:start;white-space:normal;shape-padding:0;clip-rule:nonzero;display:inline;overflow:visible;visibility:visible;opacity:0.6;isolation:auto;mix-blend-mode:normal;color-interpolation:sRGB;color-interpolation-filters:linearRGB;solid-color:#000000;solid-opacity:1;vector-effect:none;fill:#ffffff;fill-opacity:1;fill-rule:nonzero;stroke:none;stroke-width:1;stroke-linecap:round;stroke-linejoin:round;stroke-miterlimit:4;stroke-dasharray:none;stroke-dashoffset:0;stroke-opacity:1;marker:none;paint-order:fill markers stroke;color-rendering:auto;image-rendering:auto;shape-rendering:auto;text-rendering:auto;enable-background:new" />
  </g>
</svg>
