<?xml version="1.0" encoding="UTF-8" standalone="no"?>
<svg
   xmlns:dc="http://purl.org/dc/elements/1.1/"
   xmlns:cc="http://creativecommons.org/ns#"
   xmlns:rdf="http://www.w3.org/1999/02/22-rdf-syntax-ns#"
   xmlns:svg="http://www.w3.org/2000/svg"
   xmlns="http://www.w3.org/2000/svg"
   xmlns:sodipodi="http://sodipodi.sourceforge.net/DTD/sodipodi-0.dtd"
   xmlns:inkscape="http://www.inkscape.org/namespaces/inkscape"
   inkscape:export-ydpi="96"
   inkscape:export-xdpi="96"
   inkscape:export-filename="blender_icons.png"
   style="display:inline;enable-background:new"
   inkscape:output_extension="org.inkscape.output.svg.inkscape"
   sodipodi:docname="icon-editor-image.svg"
   version="1.0"
   inkscape:version="0.92.4 (5da689c313, 2019-01-14)"
   sodipodi:version="0.32"
   id="svg2"
   height="14.00005"
   width="14.00005">
  <metadata
     id="metadata34337">
    <rdf:RDF>
      <cc:Work
         rdf:about="">
        <dc:format>image/svg+xml</dc:format>
        <dc:type
           rdf:resource="http://purl.org/dc/dcmitype/StillImage" />
        <dc:title></dc:title>
      </cc:Work>
    </rdf:RDF>
  </metadata>
  <sodipodi:namedview
     inkscape:pagecheckerboard="true"
     inkscape:document-rotation="0"
     pagecolor="#808080"
     bordercolor="#666666"
     borderopacity="1"
     objecttolerance="10"
     gridtolerance="10"
     guidetolerance="10"
     inkscape:pageopacity="0"
     inkscape:pageshadow="2"
     inkscape:window-width="1366"
     inkscape:window-height="705"
     id="namedview34335"
     showgrid="false"
     inkscape:zoom="6.138702"
     inkscape:cx="-22.599122"
     inkscape:cy="43.384719"
     inkscape:window-x="1912"
     inkscape:window-y="315"
     inkscape:window-maximized="1"
     inkscape:current-layer="svg2"
     inkscape:showpageshadow="2"
     inkscape:deskcolor="#808080"
     fit-margin-top="0"
     fit-margin-left="0"
     fit-margin-right="0"
     fit-margin-bottom="0" />
  <defs
     id="defs4">
    <pattern
       y="0"
       x="0"
       height="6"
       width="6"
       patternUnits="userSpaceOnUse"
       id="EMFhbasepattern" />
  </defs>
  <g
     style="display:inline;fill:#ffffff;enable-background:new"
     id="g13993"
     transform="translate(-132,-556.99995)"
     inkscape:export-filename="blender_icons.png"
     inkscape:export-xdpi="96"
     inkscape:export-ydpi="96"
     inkscape:label="Z-6">
    <path
       style="color:#000000;font-style:normal;font-variant:normal;font-weight:normal;font-stretch:normal;font-size:medium;line-height:normal;font-family:sans-serif;font-variant-ligatures:normal;font-variant-position:normal;font-variant-caps:normal;font-variant-numeric:normal;font-variant-alternates:normal;font-feature-settings:normal;text-indent:0;text-align:start;text-decoration:none;text-decoration-line:none;text-decoration-style:solid;text-decoration-color:#000000;letter-spacing:normal;word-spacing:normal;text-transform:none;writing-mode:lr-tb;direction:ltr;text-orientation:mixed;dominant-baseline:auto;baseline-shift:baseline;text-anchor:start;white-space:normal;shape-padding:0;clip-rule:nonzero;display:inline;overflow:visible;visibility:visible;opacity:0.7;isolation:auto;mix-blend-mode:normal;color-interpolation:sRGB;color-interpolation-filters:linearRGB;solid-color:#000000;solid-opacity:1;vector-effect:none;fill:#ffffff;fill-opacity:1;fill-rule:evenodd;stroke:none;stroke-width:1;stroke-linecap:round;stroke-linejoin:round;stroke-miterlimit:4;stroke-dasharray:none;stroke-dashoffset:0;stroke-opacity:1;color-rendering:auto;image-rendering:auto;shape-rendering:auto;text-rendering:auto;enable-background:accumulate"
       d="m 132.5,557 a 0.50005,0.50005 0 0 0 -0.5,0.5 v 13 a 0.50005,0.50005 0 0 0 0.5,0.5 h 13 a 0.50005,0.50005 0 0 0 0.5,-0.5 v -8 a 0.50005,0.50005 0 1 0 -1,0 v 7.5 h -12 v -12 h 1.5 a 0.50005,0.50005 0 1 0 0,-1 z"
       id="path13936"
       inkscape:connector-curvature="0" />
    <path
       sodipodi:nodetypes="ccsssssssssssssccc"
       inkscape:connector-curvature="0"
       id="path12191-1"
       d="m 136.5,557 c -0.25,0 -0.5,0.25 -0.5,0.5 v 5.5 c 0,0.5 0.25,1 1,1 0.75,0 1,-0.5 1,-1 v -1 c 0,-0.5 0.53412,-1 1,-1 0.55229,0 1,0.44772 1,1 v 3.5 c 0,0.82843 0.67157,1.5 1.5,1.5 0.82843,0 1.5,-0.67157 1.5,-1.5 V 562 c 0,-0.55228 0.44772,-1 1,-1 h 0.5 c 0.85547,0 1.5,-0.66406 1.5,-1.5 v -2 c 0,-0.25 -0.25,-0.5 -0.5,-0.5 z"
       style="display:inline;opacity:1;vector-effect:none;fill:#ffffff;fill-opacity:1;stroke:none;stroke-width:2;stroke-linecap:round;stroke-linejoin:round;stroke-miterlimit:4;stroke-dasharray:none;stroke-dashoffset:0;stroke-opacity:1;marker:none;paint-order:fill markers stroke;enable-background:new" />
  </g>
</svg>
