<?xml version="1.0" encoding="UTF-8" standalone="no"?>
<svg
   xmlns:dc="http://purl.org/dc/elements/1.1/"
   xmlns:cc="http://creativecommons.org/ns#"
   xmlns:rdf="http://www.w3.org/1999/02/22-rdf-syntax-ns#"
   xmlns:svg="http://www.w3.org/2000/svg"
   xmlns="http://www.w3.org/2000/svg"
   xmlns:sodipodi="http://sodipodi.sourceforge.net/DTD/sodipodi-0.dtd"
   xmlns:inkscape="http://www.inkscape.org/namespaces/inkscape"
   inkscape:export-ydpi="96"
   inkscape:export-xdpi="96"
   inkscape:export-filename="blender_icons.png"
   style="display:inline;enable-background:new"
   inkscape:output_extension="org.inkscape.output.svg.inkscape"
   sodipodi:docname="menu-item-blender-icon.svg"
   version="1.0"
   inkscape:version="0.92.4 (5da689c313, 2019-01-14)"
   sodipodi:version="0.32"
   id="svg2"
   height="17.999992"
   width="17.99999">
  <metadata
     id="metadata34337">
    <rdf:RDF>
      <cc:Work
         rdf:about="">
        <dc:format>image/svg+xml</dc:format>
        <dc:type
           rdf:resource="http://purl.org/dc/dcmitype/StillImage" />
        <dc:title></dc:title>
      </cc:Work>
    </rdf:RDF>
  </metadata>
  <sodipodi:namedview
     inkscape:pagecheckerboard="true"
     inkscape:document-rotation="0"
     pagecolor="#808080"
     bordercolor="#666666"
     borderopacity="1"
     objecttolerance="10"
     gridtolerance="10"
     guidetolerance="10"
     inkscape:pageopacity="0"
     inkscape:pageshadow="2"
     inkscape:window-width="1920"
     inkscape:window-height="1017"
     id="namedview34335"
     showgrid="false"
     inkscape:zoom="5.6568542"
     inkscape:cx="16.123586"
     inkscape:cy="-34.479452"
     inkscape:window-x="-8"
     inkscape:window-y="-8"
     inkscape:window-maximized="1"
     inkscape:current-layer="svg2"
     inkscape:showpageshadow="2"
     inkscape:deskcolor="#808080"
     fit-margin-top="0"
     fit-margin-left="0"
     fit-margin-right="0"
     fit-margin-bottom="0" />
  <defs
     id="defs4" />
  <g
     id="g12707"
     style="display:inline;opacity:0.98999999;fill:#ffffff;stroke-width:1.07692003;enable-background:new"
     transform="matrix(0.928571,0,0,0.928571,-296.0696,-573.70909)"
     inkscape:export-filename="blender_icons.png"
     inkscape:export-xdpi="96"
     inkscape:export-ydpi="96"
     inkscape:label="DA-16">
    <path
       style="color:#000000;font-style:normal;font-variant:normal;font-weight:normal;font-stretch:normal;font-size:medium;line-height:normal;font-family:sans-serif;font-variant-ligatures:normal;font-variant-position:normal;font-variant-caps:normal;font-variant-numeric:normal;font-variant-alternates:normal;font-feature-settings:normal;text-indent:0;text-align:start;text-decoration:none;text-decoration-line:none;text-decoration-style:solid;text-decoration-color:#000000;letter-spacing:normal;word-spacing:normal;text-transform:none;writing-mode:lr-tb;direction:ltr;text-orientation:mixed;dominant-baseline:auto;baseline-shift:baseline;text-anchor:start;white-space:normal;shape-padding:0;clip-rule:nonzero;display:inline;overflow:visible;visibility:visible;opacity:1;isolation:auto;mix-blend-mode:normal;color-interpolation:sRGB;color-interpolation-filters:linearRGB;solid-color:#000000;solid-opacity:1;vector-effect:none;fill:#ffffff;fill-opacity:1;fill-rule:nonzero;stroke:none;stroke-width:2;stroke-linecap:round;stroke-linejoin:round;stroke-miterlimit:4;stroke-dasharray:none;stroke-dashoffset:0;stroke-opacity:1;marker:none;paint-order:fill markers stroke;color-rendering:auto;image-rendering:auto;shape-rendering:auto;text-rendering:auto;enable-background:accumulate"
       d="m 327.94922,619.99609 c -0.89539,0.0396 -1.29072,1.14622 -0.62305,1.74414 l 1.37305,1.26563 h -6.69727 c -1.36099,-0.0279 -1.36099,2.02794 0,2 h 3.0918 c -0.003,0.002 -0.005,0.004 -0.008,0.006 l -4.75,4.24805 c -0.99479,0.88933 0.33919,2.38151 1.33398,1.49218 l 2.33985,-2.09375 c 0.0823,2.95524 2.51793,5.34766 5.49218,5.34766 3.02565,0 5.49805,-2.47428 5.49805,-5.5 0,-1.56564 -0.6642,-2.98065 -1.72266,-3.98438 l -4.59961,-4.25195 c -0.19597,-0.18575 -0.45872,-0.28437 -0.72851,-0.27344 z m 1.55273,5.00977 c 1.94471,0 3.5,1.5551 3.5,3.5 0,1.94489 -1.55529,3.5 -3.5,3.5 -1.94472,0 -3.5,-1.55511 -3.5,-3.5 0,-1.9449 1.55528,-3.5 3.5,-3.5 z m -0.0176,1.78516 a 1.7319623,1.7139345 0 0 0 -1.73243,1.71484 1.7319623,1.7139345 0 0 0 1.73243,1.71289 1.7319623,1.7139345 0 0 0 1.73242,-1.71289 1.7319623,1.7139345 0 0 0 -1.73242,-1.71484 z"
       transform="matrix(1.07692,0,0,1.07692,-24.694,-47.6977)"
       id="path12703"
       inkscape:connector-curvature="0" />
    <rect
       style="display:inline;fill:none;stroke-width:1.75215995;enable-background:new"
       id="rect37443-2"
       width="19.384615"
       height="19.384617"
       x="318.84433"
       y="-637.22546"
       transform="scale(1,-1)"
       inkscape:label="frame" />
  </g>
</svg>
